<svg width="114" height="29" viewBox="0 0 114 29" fill="none" xmlns="http://www.w3.org/2000/svg">
<path d="M16.447 27.0852L15.8076 12.6476C16.4538 12.1485 16.9052 11.4092 17.0263 10.5631C14.1295 9.67176 12.3165 10.1038 11.8847 12.6476L11.2456 27.0852H16.447Z" fill="black"/>
<mask id="mask0_406_4459" style="mask-type:alpha" maskUnits="userSpaceOnUse" x="10" y="6" width="8" height="22">
<path d="M13.8464 6.89111C15.6207 6.89111 17.059 8.32945 17.059 10.1037C17.059 11.1393 16.5684 12.0595 15.8077 12.6471L16.4471 27.0847H11.2457L11.8848 12.6471C11.1242 12.0595 10.6338 11.1392 10.6338 10.1037C10.6338 8.32945 12.0721 6.89111 13.8464 6.89111Z" fill="#D9D9D9"/>
</mask>
<g mask="url(#mask0_406_4459)">
<path d="M7.92364 5.64845C8.0685 4.64497 8.9994 3.94892 10.0029 4.09378L12.4255 4.44348C13.4289 4.58834 14.125 5.51924 13.9801 6.52271L13.8927 7.12836C13.7479 8.13184 12.817 8.82789 11.8135 8.68303L9.39089 8.33333C8.38741 8.18847 7.69137 7.25757 7.83622 6.2541L7.92364 5.64845Z" fill="black"/>
<path d="M7.05811 9.14391C7.51276 8.23769 8.61597 7.87164 9.52219 8.3263L10.9829 9.05916C11.8891 9.51382 12.2552 10.617 11.8005 11.5232L9.46803 16.1723C9.01337 17.0785 7.91017 17.4446 7.00395 16.9899L5.54322 16.2571C4.63701 15.8024 4.27095 14.6992 4.72561 13.793L7.05811 9.14391Z" fill="black"/>
<path d="M14.6737 5.63907C14.8508 4.64077 15.8036 3.97504 16.8019 4.1521L18.5766 4.46687C19.5749 4.64394 20.2406 5.59675 20.0635 6.59505L19.7096 8.59033C19.5326 9.58863 18.5798 10.2544 17.5815 10.0773L15.8068 9.76253C14.8085 9.58546 14.1427 8.63265 14.3198 7.63435L14.6737 5.63907Z" fill="black"/>
</g>
<mask id="path-4-inside-1_406_4459" fill="white">
<path d="M18.7257 26.67C19.9243 26.2254 21.0519 25.6192 22.0748 24.8694L20.0177 22.2489C19.2505 22.8112 18.4048 23.2659 17.5058 23.5993L18.7257 26.67Z"/>
</mask>
<path d="M18.7257 26.67C19.9243 26.2254 21.0519 25.6192 22.0748 24.8694L20.0177 22.2489C19.2505 22.8112 18.4048 23.2659 17.5058 23.5993L18.7257 26.67Z" stroke="black" stroke-width="6.11927" mask="url(#path-4-inside-1_406_4459)"/>
<mask id="path-5-inside-2_406_4459" fill="white">
<path d="M23.4739 23.6904C24.3818 22.8131 25.1567 21.8162 25.7756 20.7291L22.7933 19.1437C22.3291 19.959 21.7479 20.7067 21.067 21.3647L23.4739 23.6904Z"/>
</mask>
<path d="M23.4739 23.6904C24.3818 22.8131 25.1567 21.8162 25.7756 20.7291L22.7933 19.1437C22.3291 19.959 21.7479 20.7067 21.067 21.3647L23.4739 23.6904Z" stroke="black" stroke-width="6.11927" mask="url(#path-5-inside-2_406_4459)"/>
<mask id="path-6-inside-3_406_4459" fill="white">
<path d="M26.5574 19.1022C27.0175 17.944 27.3058 16.7286 27.4136 15.4924L24.0218 15.2161C23.9409 16.1433 23.7247 17.0548 23.3796 17.9235L26.5574 19.1022Z"/>
</mask>
<path d="M26.5574 19.1022C27.0175 17.944 27.3058 16.7286 27.4136 15.4924L24.0218 15.2161C23.9409 16.1433 23.7247 17.0548 23.3796 17.9235L26.5574 19.1022Z" stroke="black" stroke-width="6.11927" mask="url(#path-6-inside-3_406_4459)"/>
<mask id="path-7-inside-4_406_4459" fill="white">
<path d="M27.4431 13.6988C27.3759 12.4599 27.1276 11.2363 26.7058 10.0645L23.4909 11.1453C23.8073 12.0241 23.9935 12.9418 24.0439 13.871L27.4431 13.6988Z"/>
</mask>
<path d="M27.4431 13.6988C27.3759 12.4599 27.1276 11.2363 26.7058 10.0645L23.4909 11.1453C23.8073 12.0241 23.9935 12.9418 24.0439 13.871L27.4431 13.6988Z" stroke="black" stroke-width="6.11927" mask="url(#path-7-inside-4_406_4459)"/>
<mask id="path-8-inside-5_406_4459" fill="white">
<path d="M25.9777 8.4145C25.3948 7.30906 24.6531 6.28884 23.7744 5.38417L21.2924 7.63498C21.9514 8.31348 22.5077 9.07864 22.9449 9.90772L25.9777 8.4145Z"/>
</mask>
<path d="M25.9777 8.4145C25.3948 7.30906 24.6531 6.28884 23.7744 5.38417L21.2924 7.63498C21.9514 8.31348 22.5077 9.07864 22.9449 9.90772L25.9777 8.4145Z" stroke="black" stroke-width="6.11927" mask="url(#path-8-inside-5_406_4459)"/>
<mask id="path-9-inside-6_406_4459" fill="white">
<path d="M22.4148 4.16292C21.417 3.38215 20.3099 2.74168 19.1264 2.26054L17.8064 5.29226C18.694 5.65311 19.5243 6.13346 20.2727 6.71904L22.4148 4.16292Z"/>
</mask>
<path d="M22.4148 4.16292C21.417 3.38215 20.3099 2.74168 19.1264 2.26054L17.8064 5.29226C18.694 5.65311 19.5243 6.13346 20.2727 6.71904L22.4148 4.16292Z" stroke="black" stroke-width="6.11927" mask="url(#path-9-inside-6_406_4459)"/>
<mask id="path-10-inside-7_406_4459" fill="white">
<path d="M17.1182 27.1583C15.1086 27.639 13.012 27.6706 10.9879 27.2506C8.96373 26.8306 7.06536 25.9701 5.43715 24.7346C3.80893 23.499 2.49374 21.921 1.59161 20.1204C0.689475 18.3198 0.224153 16.3442 0.231032 14.3437C0.237911 12.3432 0.716811 10.3706 1.63131 8.57584C2.54581 6.7811 3.87182 5.21151 5.50849 3.98644C7.14517 2.76137 9.04941 1.91308 11.0764 1.5061C13.1034 1.09911 15.1997 1.14415 17.206 1.63777L16.3661 4.82518C14.8614 4.45496 13.2891 4.42118 11.7689 4.72642C10.2486 5.03166 8.82046 5.66788 7.59296 6.58668C6.36545 7.50548 5.37094 8.68267 4.68507 10.0287C3.99919 11.3748 3.64002 12.8542 3.63486 14.3546C3.6297 15.855 3.97869 17.3367 4.65529 18.6871C5.33189 20.0376 6.31828 21.2211 7.53945 22.1478C8.76061 23.0744 10.1844 23.7198 11.7025 24.0348C13.2206 24.3498 14.793 24.3261 16.3002 23.9656L17.1182 27.1583Z"/>
</mask>
<path d="M17.1182 27.1583C15.1086 27.639 13.012 27.6706 10.9879 27.2506C8.96373 26.8306 7.06536 25.9701 5.43715 24.7346C3.80893 23.499 2.49374 21.921 1.59161 20.1204C0.689475 18.3198 0.224153 16.3442 0.231032 14.3437C0.237911 12.3432 0.716811 10.3706 1.63131 8.57584C2.54581 6.7811 3.87182 5.21151 5.50849 3.98644C7.14517 2.76137 9.04941 1.91308 11.0764 1.5061C13.1034 1.09911 15.1997 1.14415 17.206 1.63777L16.3661 4.82518C14.8614 4.45496 13.2891 4.42118 11.7689 4.72642C10.2486 5.03166 8.82046 5.66788 7.59296 6.58668C6.36545 7.50548 5.37094 8.68267 4.68507 10.0287C3.99919 11.3748 3.64002 12.8542 3.63486 14.3546C3.6297 15.855 3.97869 17.3367 4.65529 18.6871C5.33189 20.0376 6.31828 21.2211 7.53945 22.1478C8.76061 23.0744 10.1844 23.7198 11.7025 24.0348C13.2206 24.3498 14.793 24.3261 16.3002 23.9656L17.1182 27.1583Z" stroke="black" stroke-width="6.11927" mask="url(#path-10-inside-7_406_4459)"/>
<path d="M35.1886 12H33.7486V3.84H35.1886V12ZM42.804 3.84L40.308 8.724V12H38.868V8.748L36.348 3.84H37.884L39.648 7.32L41.316 3.84H42.804ZM43.9674 12V3.84H46.4514C47.0594 3.84 47.5394 3.928 47.8914 4.104C48.2514 4.28 48.5074 4.528 48.6594 4.848C48.8194 5.168 48.8994 5.544 48.8994 5.976V6.312C48.8994 6.944 48.6274 7.428 48.0834 7.764C48.4674 7.916 48.7594 8.136 48.9594 8.424C49.1594 8.712 49.2594 9.056 49.2594 9.456V9.792C49.2594 10.232 49.1794 10.62 49.0194 10.956C48.8594 11.284 48.5954 11.54 48.2274 11.724C47.8594 11.908 47.3674 12 46.7514 12H43.9674ZM46.4514 5.16H45.4074V7.2H46.4514C46.7714 7.2 47.0114 7.128 47.1714 6.984C47.3394 6.832 47.4234 6.628 47.4234 6.372V5.976C47.4234 5.72 47.3394 5.52 47.1714 5.376C47.0114 5.232 46.7714 5.16 46.4514 5.16ZM46.7514 8.52H45.4074V10.68H46.7514C47.0874 10.68 47.3434 10.6 47.5194 10.44C47.6954 10.28 47.7834 10.064 47.7834 9.792V9.396C47.7834 9.124 47.6954 8.912 47.5194 8.76C47.3434 8.6 47.0874 8.52 46.7514 8.52ZM56.7589 7.056V8.772C56.7589 9.812 56.4989 10.632 55.9789 11.232C55.4589 11.824 54.6989 12.12 53.6989 12.12C52.6909 12.12 51.9269 11.824 51.4069 11.232C50.8949 10.632 50.6389 9.812 50.6389 8.772V7.056C50.6389 6.016 50.8949 5.2 51.4069 4.608C51.9269 4.016 52.6909 3.72 53.6989 3.72C54.6989 3.72 55.4589 4.016 55.9789 4.608C56.4989 5.2 56.7589 6.016 56.7589 7.056ZM55.2829 7.056C55.2829 6.4 55.1549 5.908 54.8989 5.58C54.6429 5.244 54.2429 5.076 53.6989 5.076C53.1549 5.076 52.7549 5.244 52.4989 5.58C52.2429 5.908 52.1149 6.4 52.1149 7.056V8.772C52.1149 9.428 52.2429 9.924 52.4989 10.26C52.7549 10.596 53.1549 10.764 53.6989 10.764C54.2429 10.764 54.6429 10.596 54.8989 10.26C55.1549 9.924 55.2829 9.428 55.2829 8.772V7.056ZM57.6907 5.22V3.84H63.6907V5.22H61.4107V12H59.9707V5.22H57.6907ZM66.7551 10.788C67.6831 10.788 68.1471 10.444 68.1471 9.756C68.1471 9.476 68.0751 9.256 67.9311 9.096C67.7951 8.936 67.5391 8.796 67.1631 8.676L66.1791 8.352C65.0031 7.968 64.4151 7.196 64.4151 6.036C64.4151 5.364 64.6231 4.812 65.0391 4.38C65.4631 3.94 66.1231 3.72 67.0191 3.72C67.3951 3.72 67.7671 3.764 68.1351 3.852C68.5031 3.932 68.8951 4.064 69.3111 4.248L68.8671 5.484C68.4831 5.332 68.1551 5.224 67.8831 5.16C67.6191 5.088 67.3471 5.052 67.0671 5.052C66.6991 5.052 66.4071 5.12 66.1911 5.256C65.9831 5.384 65.8791 5.62 65.8791 5.964C65.8791 6.22 65.9511 6.432 66.0951 6.6C66.2471 6.76 66.4951 6.896 66.8391 7.008L67.8231 7.332C68.4151 7.532 68.8591 7.824 69.1551 8.208C69.4591 8.584 69.6111 9.084 69.6111 9.708C69.6111 10.428 69.3831 11.012 68.9271 11.46C68.4711 11.9 67.7551 12.12 66.7791 12.12C66.3951 12.12 65.9951 12.076 65.5791 11.988C65.1711 11.892 64.7231 11.732 64.2351 11.508L64.6791 10.272C65.1271 10.464 65.5071 10.6 65.8191 10.68C66.1391 10.752 66.4511 10.788 66.7551 10.788Z" fill="black"/>
<path d="M32.7766 19.548V18.84H38.4526V19.548H36.0046V27H35.2246V19.548H32.7766ZM44.4289 26.292V27H39.9889V18.84H44.3089V19.548H40.7689V22.512H43.9489V23.22H40.7689V26.292H44.4289ZM46.7727 23.844C46.7727 25.556 47.4287 26.412 48.7407 26.412C49.0207 26.412 49.2967 26.38 49.5687 26.316C49.8407 26.252 50.1567 26.136 50.5167 25.968L50.7927 26.628C50.4327 26.796 50.0807 26.92 49.7367 27C49.3927 27.08 49.0567 27.12 48.7287 27.12C47.8327 27.12 47.1447 26.836 46.6647 26.268C46.1927 25.7 45.9567 24.892 45.9567 23.844V21.996C45.9567 20.948 46.1927 20.14 46.6647 19.572C47.1447 19.004 47.8327 18.72 48.7287 18.72C49.0567 18.72 49.4007 18.76 49.7607 18.84C50.1207 18.92 50.4647 19.044 50.7927 19.212L50.5287 19.872C49.9287 19.576 49.3287 19.428 48.7287 19.428C47.4247 19.428 46.7727 20.284 46.7727 21.996V23.844ZM57.3251 27V23.22H53.4251V27H52.6451V18.84H53.4251V22.512H57.3251V18.84H58.1051V27H57.3251ZM60.86 27V18.84H61.796C62.316 19.624 62.8 20.396 63.248 21.156C63.704 21.908 64.14 22.676 64.556 23.46C64.972 24.244 65.376 25.064 65.768 25.92L65.66 22.344V18.84H66.44V27H65.504C64.904 25.712 64.288 24.492 63.656 23.34C63.032 22.18 62.344 21.016 61.592 19.848L61.64 23.508V27H60.86ZM74.6157 21.996V23.832C74.6157 24.496 74.5037 25.076 74.2797 25.572C74.0557 26.06 73.7277 26.44 73.2957 26.712C72.8717 26.984 72.3517 27.12 71.7357 27.12C70.8157 27.12 70.1037 26.82 69.5997 26.22C69.1037 25.62 68.8557 24.824 68.8557 23.832V21.996C68.8557 21.332 68.9677 20.756 69.1917 20.268C69.4157 19.78 69.7437 19.4 70.1757 19.128C70.6077 18.856 71.1277 18.72 71.7357 18.72C72.3437 18.72 72.8597 18.856 73.2837 19.128C73.7157 19.4 74.0437 19.78 74.2677 20.268C74.4997 20.756 74.6157 21.332 74.6157 21.996ZM73.7997 21.996C73.7997 21.188 73.6197 20.56 73.2597 20.112C72.9077 19.656 72.3997 19.428 71.7357 19.428C71.0797 19.428 70.5717 19.656 70.2117 20.112C69.8517 20.56 69.6717 21.188 69.6717 21.996V23.832C69.6717 24.632 69.8517 25.264 70.2117 25.728C70.5717 26.184 71.0797 26.412 71.7357 26.412C72.3997 26.412 72.9077 26.184 73.2597 25.728C73.6197 25.264 73.7997 24.632 73.7997 23.832V21.996ZM81.3399 26.292V27H77.0319V18.84H77.8119V26.292H81.3399ZM88.2095 21.996V23.832C88.2095 24.496 88.0975 25.076 87.8735 25.572C87.6495 26.06 87.3215 26.44 86.8895 26.712C86.4655 26.984 85.9455 27.12 85.3295 27.12C84.4095 27.12 83.6975 26.82 83.1935 26.22C82.6975 25.62 82.4495 24.824 82.4495 23.832V21.996C82.4495 21.332 82.5615 20.756 82.7855 20.268C83.0095 19.78 83.3375 19.4 83.7695 19.128C84.2015 18.856 84.7215 18.72 85.3295 18.72C85.9375 18.72 86.4535 18.856 86.8775 19.128C87.3095 19.4 87.6375 19.78 87.8615 20.268C88.0935 20.756 88.2095 21.332 88.2095 21.996ZM87.3935 21.996C87.3935 21.188 87.2135 20.56 86.8535 20.112C86.5015 19.656 85.9935 19.428 85.3295 19.428C84.6735 19.428 84.1655 19.656 83.8055 20.112C83.4455 20.56 83.2655 21.188 83.2655 21.996V23.832C83.2655 24.632 83.4455 25.264 83.8055 25.728C84.1655 26.184 84.6735 26.412 85.3295 26.412C85.9935 26.412 86.5015 26.184 86.8535 25.728C87.2135 25.264 87.3935 24.632 87.3935 23.832V21.996ZM95.6176 26.4C95.3696 26.576 95.0416 26.74 94.6336 26.892C94.2256 27.044 93.7296 27.12 93.1456 27.12C92.2256 27.12 91.5176 26.82 91.0216 26.22C90.5256 25.62 90.2776 24.824 90.2776 23.832V21.996C90.2776 20.948 90.5256 20.14 91.0216 19.572C91.5256 19.004 92.2376 18.72 93.1576 18.72C93.5256 18.72 93.9096 18.76 94.3096 18.84C94.7176 18.92 95.1016 19.044 95.4616 19.212L95.1976 19.872C94.8536 19.72 94.5096 19.608 94.1656 19.536C93.8216 19.464 93.4856 19.428 93.1576 19.428C91.7816 19.428 91.0936 20.284 91.0936 21.996V23.832C91.0936 24.64 91.2696 25.276 91.6216 25.74C91.9816 26.204 92.5096 26.436 93.2056 26.436C93.8616 26.436 94.4216 26.292 94.8856 26.004V23.568H93.2416V22.86H95.6176V26.4ZM98.6712 27H97.8912V18.84H98.6712V27ZM105.87 26.292V27H101.43V18.84H105.75V19.548H102.21V22.512H105.39V23.22H102.21V26.292H105.87ZM109.354 26.436C109.89 26.436 110.306 26.312 110.602 26.064C110.898 25.808 111.046 25.44 111.046 24.96C111.046 24.56 110.938 24.216 110.722 23.928C110.514 23.632 110.174 23.42 109.702 23.292L108.742 23.028C108.11 22.852 107.654 22.58 107.374 22.212C107.094 21.844 106.954 21.4 106.954 20.88C106.954 20.496 107.03 20.14 107.182 19.812C107.334 19.484 107.582 19.22 107.926 19.02C108.278 18.82 108.754 18.72 109.354 18.72C109.698 18.72 110.062 18.764 110.446 18.852C110.838 18.932 111.226 19.064 111.61 19.248L111.346 19.92C110.962 19.736 110.606 19.604 110.278 19.524C109.95 19.444 109.642 19.404 109.354 19.404C108.842 19.404 108.446 19.516 108.166 19.74C107.886 19.964 107.746 20.324 107.746 20.82C107.746 21.164 107.838 21.464 108.022 21.72C108.206 21.968 108.542 22.16 109.03 22.296L109.99 22.56C110.606 22.728 111.066 23.008 111.37 23.4C111.682 23.792 111.838 24.28 111.838 24.864C111.838 25.528 111.642 26.072 111.25 26.496C110.866 26.912 110.234 27.12 109.354 27.12C108.978 27.12 108.578 27.076 108.154 26.988C107.73 26.9 107.306 26.76 106.882 26.568L107.134 25.908C107.542 26.1 107.922 26.236 108.274 26.316C108.626 26.396 108.986 26.436 109.354 26.436Z" fill="#6B7280"/>
</svg>
