<svg width="114" height="29" viewBox="0 0 114 29" fill="none" xmlns="http://www.w3.org/2000/svg">
<path d="M16.4465 27.0852L15.8071 12.6476C16.4534 12.1485 16.9047 11.4092 17.0259 10.5631C14.129 9.67176 12.316 10.1038 11.8842 12.6476L11.2451 27.0852H16.4465Z" fill="white"/>
<mask id="mask0_425_4426" style="mask-type:alpha" maskUnits="userSpaceOnUse" x="10" y="6" width="8" height="22">
<path d="M13.8464 6.89111C15.6207 6.89111 17.059 8.32945 17.059 10.1037C17.059 11.1393 16.5684 12.0595 15.8077 12.6471L16.4471 27.0847H11.2457L11.8848 12.6471C11.1242 12.0595 10.6338 11.1392 10.6338 10.1037C10.6338 8.32945 12.0721 6.89111 13.8464 6.89111Z" fill="#D9D9D9"/>
</mask>
<g mask="url(#mask0_425_4426)">
<path d="M7.92364 5.64845C8.0685 4.64497 8.9994 3.94892 10.0029 4.09378L12.4255 4.44348C13.4289 4.58834 14.125 5.51924 13.9801 6.52271L13.8927 7.12836C13.7479 8.13184 12.817 8.82789 11.8135 8.68303L9.39089 8.33333C8.38741 8.18847 7.69137 7.25757 7.83622 6.2541L7.92364 5.64845Z" fill="white"/>
<path d="M7.05811 9.14391C7.51276 8.23769 8.61597 7.87164 9.52219 8.3263L10.9829 9.05916C11.8891 9.51382 12.2552 10.617 11.8005 11.5232L9.46803 16.1723C9.01337 17.0785 7.91017 17.4446 7.00395 16.9899L5.54322 16.2571C4.63701 15.8024 4.27095 14.6992 4.72561 13.793L7.05811 9.14391Z" fill="white"/>
<path d="M14.6737 5.63907C14.8508 4.64077 15.8036 3.97504 16.8019 4.1521L18.5766 4.46687C19.5749 4.64394 20.2406 5.59675 20.0635 6.59505L19.7096 8.59033C19.5326 9.58863 18.5798 10.2544 17.5815 10.0773L15.8068 9.76253C14.8085 9.58546 14.1427 8.63265 14.3198 7.63435L14.6737 5.63907Z" fill="white"/>
</g>
<mask id="path-4-inside-1_425_4426" fill="white">
<path d="M18.7261 26.67C19.9248 26.2254 21.0524 25.6192 22.0753 24.8694L20.0182 22.2489C19.251 22.8112 18.4053 23.2659 17.5063 23.5993L18.7261 26.67Z"/>
</mask>
<path d="M18.7261 26.67C19.9248 26.2254 21.0524 25.6192 22.0753 24.8694L20.0182 22.2489C19.251 22.8112 18.4053 23.2659 17.5063 23.5993L18.7261 26.67Z" stroke="white" stroke-width="6.11927" mask="url(#path-4-inside-1_425_4426)"/>
<mask id="path-5-inside-2_425_4426" fill="white">
<path d="M23.4744 23.6904C24.3822 22.8131 25.1572 21.8162 25.776 20.7291L22.7937 19.1437C22.3296 19.959 21.7484 20.7067 21.0675 21.3647L23.4744 23.6904Z"/>
</mask>
<path d="M23.4744 23.6904C24.3822 22.8131 25.1572 21.8162 25.776 20.7291L22.7937 19.1437C22.3296 19.959 21.7484 20.7067 21.0675 21.3647L23.4744 23.6904Z" stroke="white" stroke-width="6.11927" mask="url(#path-5-inside-2_425_4426)"/>
<mask id="path-6-inside-3_425_4426" fill="white">
<path d="M26.5579 19.1022C27.018 17.944 27.3063 16.7286 27.4141 15.4924L24.0223 15.2161C23.9414 16.1433 23.7252 17.0548 23.3801 17.9235L26.5579 19.1022Z"/>
</mask>
<path d="M26.5579 19.1022C27.018 17.944 27.3063 16.7286 27.4141 15.4924L24.0223 15.2161C23.9414 16.1433 23.7252 17.0548 23.3801 17.9235L26.5579 19.1022Z" stroke="white" stroke-width="6.11927" mask="url(#path-6-inside-3_425_4426)"/>
<mask id="path-7-inside-4_425_4426" fill="white">
<path d="M27.4436 13.6988C27.3764 12.4599 27.1281 11.2363 26.7063 10.0645L23.4914 11.1453C23.8078 12.0241 23.994 12.9418 24.0444 13.871L27.4436 13.6988Z"/>
</mask>
<path d="M27.4436 13.6988C27.3764 12.4599 27.1281 11.2363 26.7063 10.0645L23.4914 11.1453C23.8078 12.0241 23.994 12.9418 24.0444 13.871L27.4436 13.6988Z" stroke="white" stroke-width="6.11927" mask="url(#path-7-inside-4_425_4426)"/>
<mask id="path-8-inside-5_425_4426" fill="white">
<path d="M25.9782 8.4145C25.3953 7.30906 24.6535 6.28884 23.7749 5.38417L21.2929 7.63498C21.9519 8.31348 22.5082 9.07864 22.9454 9.90772L25.9782 8.4145Z"/>
</mask>
<path d="M25.9782 8.4145C25.3953 7.30906 24.6535 6.28884 23.7749 5.38417L21.2929 7.63498C21.9519 8.31348 22.5082 9.07864 22.9454 9.90772L25.9782 8.4145Z" stroke="white" stroke-width="6.11927" mask="url(#path-8-inside-5_425_4426)"/>
<mask id="path-9-inside-6_425_4426" fill="white">
<path d="M22.4153 4.16292C21.4175 3.38215 20.3104 2.74168 19.1269 2.26054L17.8069 5.29226C18.6945 5.65311 19.5248 6.13346 20.2732 6.71904L22.4153 4.16292Z"/>
</mask>
<path d="M22.4153 4.16292C21.4175 3.38215 20.3104 2.74168 19.1269 2.26054L17.8069 5.29226C18.6945 5.65311 19.5248 6.13346 20.2732 6.71904L22.4153 4.16292Z" stroke="white" stroke-width="6.11927" mask="url(#path-9-inside-6_425_4426)"/>
<mask id="path-10-inside-7_425_4426" fill="white">
<path d="M17.1187 27.1583C15.1091 27.639 13.0125 27.6706 10.9884 27.2506C8.96422 26.8306 7.06585 25.9701 5.43764 24.7346C3.80942 23.499 2.49423 21.921 1.5921 20.1204C0.689964 18.3198 0.224641 16.3442 0.23152 14.3437C0.2384 12.3432 0.717299 10.3706 1.6318 8.57584C2.54629 6.7811 3.87231 5.21151 5.50898 3.98644C7.14566 2.76137 9.0499 1.91308 11.0769 1.5061C13.1039 1.09911 15.2002 1.14415 17.2065 1.63777L16.3666 4.82518C14.8619 4.45496 13.2896 4.42118 11.7694 4.72642C10.2491 5.03166 8.82095 5.66788 7.59344 6.58668C6.36594 7.50548 5.37143 8.68267 4.68555 10.0287C3.99968 11.3748 3.64051 12.8542 3.63535 14.3546C3.63019 15.855 3.97918 17.3367 4.65578 18.6871C5.33238 20.0376 6.31877 21.2211 7.53993 22.1478C8.7611 23.0744 10.1849 23.7198 11.703 24.0348C13.2211 24.3498 14.7935 24.3261 16.3007 23.9656L17.1187 27.1583Z"/>
</mask>
<path d="M17.1187 27.1583C15.1091 27.639 13.0125 27.6706 10.9884 27.2506C8.96422 26.8306 7.06585 25.9701 5.43764 24.7346C3.80942 23.499 2.49423 21.921 1.5921 20.1204C0.689964 18.3198 0.224641 16.3442 0.23152 14.3437C0.2384 12.3432 0.717299 10.3706 1.6318 8.57584C2.54629 6.7811 3.87231 5.21151 5.50898 3.98644C7.14566 2.76137 9.0499 1.91308 11.0769 1.5061C13.1039 1.09911 15.2002 1.14415 17.2065 1.63777L16.3666 4.82518C14.8619 4.45496 13.2896 4.42118 11.7694 4.72642C10.2491 5.03166 8.82095 5.66788 7.59344 6.58668C6.36594 7.50548 5.37143 8.68267 4.68555 10.0287C3.99968 11.3748 3.64051 12.8542 3.63535 14.3546C3.63019 15.855 3.97918 17.3367 4.65578 18.6871C5.33238 20.0376 6.31877 21.2211 7.53993 22.1478C8.7611 23.0744 10.1849 23.7198 11.703 24.0348C13.2211 24.3498 14.7935 24.3261 16.3007 23.9656L17.1187 27.1583Z" stroke="white" stroke-width="6.11927" mask="url(#path-10-inside-7_425_4426)"/>
<path d="M35.1891 12H33.7491V3.84H35.1891V12ZM42.8045 3.84L40.3085 8.724V12H38.8685V8.748L36.3485 3.84H37.8845L39.6485 7.32L41.3165 3.84H42.8045ZM43.9678 12V3.84H46.4518C47.0598 3.84 47.5398 3.928 47.8918 4.104C48.2518 4.28 48.5078 4.528 48.6598 4.848C48.8198 5.168 48.8998 5.544 48.8998 5.976V6.312C48.8998 6.944 48.6278 7.428 48.0838 7.764C48.4678 7.916 48.7598 8.136 48.9598 8.424C49.1598 8.712 49.2598 9.056 49.2598 9.456V9.792C49.2598 10.232 49.1798 10.62 49.0198 10.956C48.8598 11.284 48.5958 11.54 48.2278 11.724C47.8598 11.908 47.3678 12 46.7518 12H43.9678ZM46.4518 5.16H45.4078V7.2H46.4518C46.7718 7.2 47.0118 7.128 47.1718 6.984C47.3398 6.832 47.4238 6.628 47.4238 6.372V5.976C47.4238 5.72 47.3398 5.52 47.1718 5.376C47.0118 5.232 46.7718 5.16 46.4518 5.16ZM46.7518 8.52H45.4078V10.68H46.7518C47.0878 10.68 47.3438 10.6 47.5198 10.44C47.6958 10.28 47.7838 10.064 47.7838 9.792V9.396C47.7838 9.124 47.6958 8.912 47.5198 8.76C47.3438 8.6 47.0878 8.52 46.7518 8.52ZM56.7594 7.056V8.772C56.7594 9.812 56.4994 10.632 55.9794 11.232C55.4594 11.824 54.6994 12.12 53.6994 12.12C52.6914 12.12 51.9274 11.824 51.4074 11.232C50.8954 10.632 50.6394 9.812 50.6394 8.772V7.056C50.6394 6.016 50.8954 5.2 51.4074 4.608C51.9274 4.016 52.6914 3.72 53.6994 3.72C54.6994 3.72 55.4594 4.016 55.9794 4.608C56.4994 5.2 56.7594 6.016 56.7594 7.056ZM55.2834 7.056C55.2834 6.4 55.1554 5.908 54.8994 5.58C54.6434 5.244 54.2434 5.076 53.6994 5.076C53.1554 5.076 52.7554 5.244 52.4994 5.58C52.2434 5.908 52.1154 6.4 52.1154 7.056V8.772C52.1154 9.428 52.2434 9.924 52.4994 10.26C52.7554 10.596 53.1554 10.764 53.6994 10.764C54.2434 10.764 54.6434 10.596 54.8994 10.26C55.1554 9.924 55.2834 9.428 55.2834 8.772V7.056ZM57.6912 5.22V3.84H63.6912V5.22H61.4112V12H59.9712V5.22H57.6912ZM66.7556 10.788C67.6836 10.788 68.1476 10.444 68.1476 9.756C68.1476 9.476 68.0756 9.256 67.9316 9.096C67.7956 8.936 67.5396 8.796 67.1636 8.676L66.1796 8.352C65.0036 7.968 64.4156 7.196 64.4156 6.036C64.4156 5.364 64.6236 4.812 65.0396 4.38C65.4636 3.94 66.1236 3.72 67.0196 3.72C67.3956 3.72 67.7676 3.764 68.1356 3.852C68.5036 3.932 68.8956 4.064 69.3116 4.248L68.8676 5.484C68.4836 5.332 68.1556 5.224 67.8836 5.16C67.6196 5.088 67.3476 5.052 67.0676 5.052C66.6996 5.052 66.4076 5.12 66.1916 5.256C65.9836 5.384 65.8796 5.62 65.8796 5.964C65.8796 6.22 65.9516 6.432 66.0956 6.6C66.2476 6.76 66.4956 6.896 66.8396 7.008L67.8236 7.332C68.4156 7.532 68.8596 7.824 69.1556 8.208C69.4596 8.584 69.6116 9.084 69.6116 9.708C69.6116 10.428 69.3836 11.012 68.9276 11.46C68.4716 11.9 67.7556 12.12 66.7796 12.12C66.3956 12.12 65.9956 12.076 65.5796 11.988C65.1716 11.892 64.7236 11.732 64.2356 11.508L64.6796 10.272C65.1276 10.464 65.5076 10.6 65.8196 10.68C66.1396 10.752 66.4516 10.788 66.7556 10.788Z" fill="white"/>
<path d="M32.7771 19.548V18.84H38.4531V19.548H36.0051V27H35.2251V19.548H32.7771ZM44.4294 26.292V27H39.9894V18.84H44.3094V19.548H40.7694V22.512H43.9494V23.22H40.7694V26.292H44.4294ZM46.7732 23.844C46.7732 25.556 47.4292 26.412 48.7412 26.412C49.0212 26.412 49.2972 26.38 49.5692 26.316C49.8412 26.252 50.1572 26.136 50.5172 25.968L50.7932 26.628C50.4332 26.796 50.0812 26.92 49.7372 27C49.3932 27.08 49.0572 27.12 48.7292 27.12C47.8332 27.12 47.1452 26.836 46.6652 26.268C46.1932 25.7 45.9572 24.892 45.9572 23.844V21.996C45.9572 20.948 46.1932 20.14 46.6652 19.572C47.1452 19.004 47.8332 18.72 48.7292 18.72C49.0572 18.72 49.4012 18.76 49.7612 18.84C50.1212 18.92 50.4652 19.044 50.7932 19.212L50.5292 19.872C49.9292 19.576 49.3292 19.428 48.7292 19.428C47.4252 19.428 46.7732 20.284 46.7732 21.996V23.844ZM57.3256 27V23.22H53.4256V27H52.6456V18.84H53.4256V22.512H57.3256V18.84H58.1056V27H57.3256ZM60.8605 27V18.84H61.7965C62.3165 19.624 62.8005 20.396 63.2485 21.156C63.7045 21.908 64.1405 22.676 64.5565 23.46C64.9725 24.244 65.3765 25.064 65.7685 25.92L65.6605 22.344V18.84H66.4405V27H65.5045C64.9045 25.712 64.2885 24.492 63.6565 23.34C63.0325 22.18 62.3445 21.016 61.5925 19.848L61.6405 23.508V27H60.8605ZM74.6162 21.996V23.832C74.6162 24.496 74.5042 25.076 74.2802 25.572C74.0562 26.06 73.7282 26.44 73.2962 26.712C72.8722 26.984 72.3522 27.12 71.7362 27.12C70.8162 27.12 70.1042 26.82 69.6002 26.22C69.1042 25.62 68.8562 24.824 68.8562 23.832V21.996C68.8562 21.332 68.9682 20.756 69.1922 20.268C69.4162 19.78 69.7442 19.4 70.1762 19.128C70.6082 18.856 71.1282 18.72 71.7362 18.72C72.3442 18.72 72.8602 18.856 73.2842 19.128C73.7162 19.4 74.0442 19.78 74.2682 20.268C74.5002 20.756 74.6162 21.332 74.6162 21.996ZM73.8002 21.996C73.8002 21.188 73.6202 20.56 73.2602 20.112C72.9082 19.656 72.4002 19.428 71.7362 19.428C71.0802 19.428 70.5722 19.656 70.2122 20.112C69.8522 20.56 69.6722 21.188 69.6722 21.996V23.832C69.6722 24.632 69.8522 25.264 70.2122 25.728C70.5722 26.184 71.0802 26.412 71.7362 26.412C72.4002 26.412 72.9082 26.184 73.2602 25.728C73.6202 25.264 73.8002 24.632 73.8002 23.832V21.996ZM81.3403 26.292V27H77.0323V18.84H77.8123V26.292H81.3403ZM88.21 21.996V23.832C88.21 24.496 88.098 25.076 87.874 25.572C87.65 26.06 87.322 26.44 86.89 26.712C86.466 26.984 85.946 27.12 85.33 27.12C84.41 27.12 83.698 26.82 83.194 26.22C82.698 25.62 82.45 24.824 82.45 23.832V21.996C82.45 21.332 82.562 20.756 82.786 20.268C83.01 19.78 83.338 19.4 83.77 19.128C84.202 18.856 84.722 18.72 85.33 18.72C85.938 18.72 86.454 18.856 86.878 19.128C87.31 19.4 87.638 19.78 87.862 20.268C88.094 20.756 88.21 21.332 88.21 21.996ZM87.394 21.996C87.394 21.188 87.214 20.56 86.854 20.112C86.502 19.656 85.994 19.428 85.33 19.428C84.674 19.428 84.166 19.656 83.806 20.112C83.446 20.56 83.266 21.188 83.266 21.996V23.832C83.266 24.632 83.446 25.264 83.806 25.728C84.166 26.184 84.674 26.412 85.33 26.412C85.994 26.412 86.502 26.184 86.854 25.728C87.214 25.264 87.394 24.632 87.394 23.832V21.996ZM95.6181 26.4C95.3701 26.576 95.0421 26.74 94.6341 26.892C94.2261 27.044 93.7301 27.12 93.1461 27.12C92.2261 27.12 91.5181 26.82 91.0221 26.22C90.5261 25.62 90.2781 24.824 90.2781 23.832V21.996C90.2781 20.948 90.5261 20.14 91.0221 19.572C91.5261 19.004 92.2381 18.72 93.1581 18.72C93.5261 18.72 93.9101 18.76 94.3101 18.84C94.7181 18.92 95.1021 19.044 95.4621 19.212L95.1981 19.872C94.8541 19.72 94.5101 19.608 94.1661 19.536C93.8221 19.464 93.4861 19.428 93.1581 19.428C91.7821 19.428 91.0941 20.284 91.0941 21.996V23.832C91.0941 24.64 91.2701 25.276 91.6221 25.74C91.9821 26.204 92.5101 26.436 93.2061 26.436C93.8621 26.436 94.4221 26.292 94.8861 26.004V23.568H93.2421V22.86H95.6181V26.4ZM98.6717 27H97.8917V18.84H98.6717V27ZM105.871 26.292V27H101.431V18.84H105.751V19.548H102.211V22.512H105.391V23.22H102.211V26.292H105.871ZM109.355 26.436C109.891 26.436 110.307 26.312 110.603 26.064C110.899 25.808 111.047 25.44 111.047 24.96C111.047 24.56 110.939 24.216 110.723 23.928C110.515 23.632 110.175 23.42 109.703 23.292L108.743 23.028C108.111 22.852 107.655 22.58 107.375 22.212C107.095 21.844 106.955 21.4 106.955 20.88C106.955 20.496 107.031 20.14 107.183 19.812C107.335 19.484 107.583 19.22 107.927 19.02C108.279 18.82 108.755 18.72 109.355 18.72C109.699 18.72 110.063 18.764 110.447 18.852C110.839 18.932 111.227 19.064 111.611 19.248L111.347 19.92C110.963 19.736 110.607 19.604 110.279 19.524C109.951 19.444 109.643 19.404 109.355 19.404C108.843 19.404 108.447 19.516 108.167 19.74C107.887 19.964 107.747 20.324 107.747 20.82C107.747 21.164 107.839 21.464 108.023 21.72C108.207 21.968 108.543 22.16 109.031 22.296L109.991 22.56C110.607 22.728 111.067 23.008 111.371 23.4C111.683 23.792 111.839 24.28 111.839 24.864C111.839 25.528 111.643 26.072 111.251 26.496C110.867 26.912 110.235 27.12 109.355 27.12C108.979 27.12 108.579 27.076 108.155 26.988C107.731 26.9 107.307 26.76 106.883 26.568L107.135 25.908C107.543 26.1 107.923 26.236 108.275 26.316C108.627 26.396 108.987 26.436 109.355 26.436Z" fill="#F9FAFB"/>
</svg>
